<?xml version="1.0" encoding="utf-8"?>
<!-- Generator: Adobe Illustrator 16.0.0, SVG Export Plug-In . SVG Version: 6.00 Build 0)  -->
<!DOCTYPE svg PUBLIC "-//W3C//DTD SVG 1.1//EN" "http://www.w3.org/Graphics/SVG/1.1/DTD/svg11.dtd">
<svg version="1.1" id="Layer_1" xmlns="http://www.w3.org/2000/svg" xmlns:xlink="http://www.w3.org/1999/xlink" x="0px" y="0px"
	 width="348.275px" height="162.422px" viewBox="0 0 348.275 162.422" enable-background="new 0 0 348.275 162.422"
	 xml:space="preserve">
<path fill="#9C9E9F" d="M243.72,141.078c0.228,1.578,1.588,3.084,0.439,4.219s-2.786,1.771-4.611,1.771H143.24
	c-1.826,0-3.463-0.653-4.611-1.789c-1.149-1.133,0.21-2.643,0.44-4.221c0,0,43.088,1.929,43.088-13.657
	c0-1.452,0.023-3.856,0.064-5.332h18.408c0.084,1.815,0.133,4.462,0.133,5.996C200.763,139.882,243.72,141.078,243.72,141.078z
	 M277.868,5.297v108.541c0,2.918-2.377,5.295-5.295,5.295H110.216c-2.918,0-5.295-2.377-5.295-5.295V5.297
	c0-2.921,2.377-5.297,5.295-5.297h162.357C275.491,0,277.868,2.376,277.868,5.297z M235.425,110.028c0-1.52-1.234-2.751-2.753-2.751
	s-2.75,1.231-2.75,2.751c0,1.519,1.231,2.751,2.75,2.751S235.425,111.547,235.425,110.028z M248.119,110.028
	c0-1.52-1.232-2.751-2.75-2.751c-1.52,0-2.751,1.231-2.751,2.751c0,1.519,1.231,2.751,2.751,2.751
	C246.886,112.779,248.119,111.547,248.119,110.028z M260.816,110.028c0-1.52-1.235-2.751-2.753-2.751
	c-1.519,0-2.75,1.231-2.75,2.751c0,1.519,1.231,2.751,2.75,2.751C259.581,112.779,260.816,111.547,260.816,110.028z M264.252,12.615
	c0-0.082-0.119-0.207-0.279-0.207H118.815c-0.161,0-0.279,0.125-0.279,0.207v88.254h145.717V12.615z"/>
<path fill="#3E3D40" d="M335.422,20.396h-65.183c-7.07,0-12.854,5.784-12.854,12.854v116.317c0,7.07,5.783,12.854,12.854,12.854
	h65.183c7.069,0,12.852-5.783,12.852-12.854V33.251C348.274,26.18,342.491,20.396,335.422,20.396z M293.701,29.618h18.028
	c1.011,0,1.837,0.735,1.837,1.634c0,0.899-0.826,1.635-1.837,1.635h-18.028c-1.01,0-1.836-0.735-1.836-1.635
	C291.865,30.353,292.691,29.618,293.701,29.618z M302.716,155.867c-2.397,0-4.34-1.942-4.34-4.34s1.942-4.34,4.34-4.34
	s4.339,1.942,4.339,4.34S305.113,155.867,302.716,155.867z M336.137,141.725h-66.843V41.094h66.843V141.725z"/>
<path fill="#707173" d="M188.875,142.312h-14.716V47.549c0-2.876-2.34-5.215-5.214-5.215H27.469c-2.874,0-5.214,2.339-5.214,5.215
	v94.763H7.54c-3.79,0-6.875,3.084-6.875,6.878v6.358c0,3.79,3.085,6.874,6.875,6.874h181.335c3.79,0,6.876-3.084,6.876-6.874v-6.358
	C195.75,145.396,192.665,142.312,188.875,142.312z M127.851,152.702c0,1.44-1.173,2.613-2.614,2.613h-54.06
	c-1.441,0-2.614-1.173-2.614-2.613v-2.416c0-0.219,0.035-0.429,0.086-0.632h59.115c0.053,0.203,0.087,0.413,0.087,0.632V152.702z
	 M158.274,155.162c-1.209,0-2.19-0.981-2.19-2.19s0.981-2.191,2.19-2.191s2.19,0.982,2.19,2.191S159.483,155.162,158.274,155.162z
	 M160.754,138.46H35.661V54.765c0-0.083,0.117-0.214,0.275-0.214h124.543c0.157,0,0.275,0.131,0.275,0.214V138.46z M168.381,155.162
	c-1.209,0-2.189-0.981-2.189-2.19s0.98-2.191,2.189-2.191s2.191,0.982,2.191,2.191S169.59,155.162,168.381,155.162z
	 M178.489,155.162c-1.208,0-2.189-0.981-2.189-2.19s0.981-2.191,2.189-2.191c1.211,0,2.191,0.982,2.191,2.191
	S179.7,155.162,178.489,155.162z"/>
<g>
	<path d="M101.475,75.838H55.684v51.592H44.258V70.169c0-0.791,0.146-1.538,0.439-2.241c0.292-0.703,0.696-1.318,1.208-1.846
		c0.512-0.527,1.121-0.938,1.824-1.23c0.703-0.292,1.465-0.439,2.285-0.439h51.46V75.838z M96.377,101.678H60.254V90.165h36.123
		V101.678z"/>
</g>
<g>
	<path d="M197.107,34.072h-11.426V23.745h11.426V34.072z M197.107,91.333h-11.426V43.828h11.426V91.333z"/>
</g>
<g>
	<path d="M332.505,78.965h-24.298v49.785h-11.026V78.965H272.84V67.939h59.665V78.965z"/>
</g>
<g>
	<path d="M14.738,124.276c0.307,0,0.636,0.053,0.986,0.158c0.352,0.105,0.677,0.277,0.978,0.517c0.301,0.24,0.551,0.552,0.752,0.935
		s0.301,0.853,0.301,1.408v9.454c0,0.179-0.031,0.345-0.096,0.498c-0.063,0.153-0.15,0.286-0.263,0.397
		c-0.112,0.112-0.245,0.2-0.397,0.264c-0.154,0.063-0.319,0.096-0.498,0.096H5.274c-0.172,0-0.336-0.032-0.488-0.096
		c-0.154-0.063-0.287-0.151-0.402-0.264c-0.115-0.111-0.205-0.244-0.269-0.397s-0.096-0.319-0.096-0.498v-8.334
		c0-0.307,0.054-0.635,0.163-0.986c0.108-0.352,0.282-0.679,0.521-0.982c0.24-0.303,0.551-0.555,0.934-0.756
		c0.384-0.201,0.854-0.302,1.408-0.302h0.47c0.44,0,0.915,0.073,1.423,0.22c0.508,0.147,0.988,0.384,1.441,0.709
		c0.172-0.281,0.38-0.544,0.623-0.79c0.242-0.246,0.523-0.461,0.842-0.646c0.32-0.186,0.681-0.332,1.083-0.44
		s0.847-0.163,1.331-0.163H14.738z M14.259,126.766c-0.325,0-0.617,0.052-0.876,0.153c-0.259,0.103-0.48,0.246-0.666,0.432
		c-0.185,0.185-0.327,0.408-0.426,0.67s-0.149,0.556-0.149,0.881v5.613H9.633v-4.492c0-0.325-0.05-0.619-0.149-0.881
		c-0.098-0.262-0.24-0.485-0.426-0.671c-0.186-0.185-0.406-0.327-0.666-0.426c-0.258-0.1-0.551-0.148-0.876-0.148h-0.47
		c-0.357,0-0.535,0.172-0.535,0.517v7.098h8.754v-8.218c0-0.045-0.003-0.1-0.01-0.163c-0.006-0.063-0.025-0.121-0.057-0.172
		c-0.032-0.052-0.087-0.097-0.163-0.135s-0.182-0.058-0.316-0.058H14.259z"/>
	<path d="M9.892,113.328v5.604c0,0.339,0.084,0.594,0.254,0.767c0.169,0.172,0.416,0.258,0.742,0.258h6.867v2.49h-6.867
		c-0.428,0-0.811-0.054-1.149-0.162s-0.638-0.254-0.896-0.437c-0.26-0.182-0.479-0.391-0.662-0.627
		c-0.182-0.236-0.33-0.484-0.444-0.742c-0.115-0.259-0.2-0.521-0.255-0.786C7.429,119.427,7.4,119.18,7.4,118.95v-5.622H9.892z"/>
	<path d="M14.259,100.462c0.428,0,0.813,0.055,1.154,0.163s0.643,0.253,0.9,0.432c0.26,0.179,0.479,0.386,0.661,0.622
		c0.183,0.236,0.331,0.483,0.446,0.742c0.114,0.259,0.199,0.521,0.253,0.786c0.055,0.265,0.081,0.516,0.081,0.751v4.493
		c0,0.345-0.06,0.722-0.182,1.13c-0.121,0.409-0.32,0.787-0.599,1.136c-0.277,0.348-0.638,0.639-1.082,0.871
		c-0.444,0.233-0.988,0.35-1.634,0.35h-3.371c-0.639,0-1.18-0.116-1.623-0.35c-0.444-0.232-0.805-0.523-1.084-0.871
		c-0.277-0.349-0.477-0.727-0.598-1.136c-0.121-0.408-0.183-0.785-0.183-1.13v-4.493c0-0.638,0.115-1.181,0.345-1.628
		c0.23-0.447,0.52-0.808,0.867-1.082s0.727-0.475,1.135-0.6c0.409-0.124,0.789-0.187,1.141-0.187H14.259z M10.907,102.953
		c-0.346,0-0.602,0.087-0.768,0.259c-0.165,0.173-0.248,0.422-0.248,0.747v4.474c0,0.332,0.084,0.585,0.254,0.757
		c0.169,0.173,0.416,0.259,0.742,0.259h3.371c0.326,0,0.575-0.086,0.748-0.259c0.172-0.172,0.258-0.425,0.258-0.757v-4.474
		c0-0.338-0.086-0.59-0.258-0.756c-0.173-0.166-0.422-0.25-0.748-0.25H10.907z"/>
	<path d="M7.4,81.295c0.888,0.396,1.761,0.824,2.62,1.284c0.859,0.459,1.672,0.939,2.438,1.441c0.767,0.501,1.475,1.014,2.122,1.537
		c0.648,0.523,1.207,1.042,1.677,1.557c0.469,0.514,0.836,1.015,1.102,1.504c0.265,0.488,0.396,0.95,0.396,1.384
		c0,0.179-0.031,0.345-0.096,0.498c-0.063,0.153-0.15,0.287-0.263,0.402s-0.245,0.204-0.397,0.269
		c-0.154,0.063-0.319,0.096-0.498,0.096h-4.646l5.527,4.942c0.129,0.128,0.223,0.268,0.283,0.417c0.061,0.15,0.09,0.305,0.09,0.464
		c0,0.173-0.031,0.335-0.096,0.484c-0.063,0.15-0.15,0.282-0.263,0.397s-0.245,0.206-0.397,0.273c-0.154,0.066-0.319,0.1-0.498,0.1
		H7.4v-2.49h5.901l-5.547-4.962c-0.179-0.179-0.292-0.391-0.34-0.637c-0.048-0.245-0.021-0.486,0.082-0.723
		c0.096-0.236,0.247-0.424,0.455-0.561c0.207-0.138,0.436-0.206,0.685-0.206h5.919c-0.517-0.536-1.063-1.021-1.637-1.456
		c-0.576-0.435-1.168-0.838-1.777-1.212c-0.61-0.373-1.229-0.725-1.859-1.054c-0.628-0.329-1.256-0.649-1.882-0.963V81.295z"/>
	<path d="M14.259,70.423c0.428,0,0.813,0.055,1.154,0.163s0.643,0.252,0.9,0.431c0.26,0.179,0.479,0.387,0.661,0.623
		c0.183,0.236,0.331,0.483,0.446,0.742c0.114,0.259,0.199,0.521,0.253,0.785c0.055,0.266,0.081,0.516,0.081,0.752v6.744h-2.49
		v-6.725c0-0.339-0.086-0.594-0.258-0.767c-0.173-0.173-0.422-0.259-0.748-0.259c-0.664,0.032-0.996,0.367-0.996,1.006v3.86
		c0,0.55-0.096,1.016-0.287,1.398s-0.432,0.694-0.719,0.935c-0.287,0.239-0.597,0.411-0.929,0.517s-0.642,0.158-0.929,0.158
		c-0.557,0-1.023-0.099-1.404-0.297c-0.379-0.197-0.688-0.446-0.924-0.747c-0.236-0.3-0.407-0.626-0.513-0.978
		C7.454,78.416,7.4,78.086,7.4,77.78v-6.121h2.491v6.102c0,0.128,0.014,0.229,0.043,0.303c0.028,0.073,0.066,0.128,0.115,0.162
		c0.047,0.035,0.099,0.056,0.152,0.063c0.055,0.007,0.107,0.01,0.158,0.01c0.103-0.007,0.182-0.025,0.24-0.058
		c0.057-0.031,0.099-0.071,0.124-0.12c0.025-0.048,0.04-0.102,0.043-0.162c0.004-0.062,0.005-0.12,0.005-0.178v-3.86
		c0-0.639,0.115-1.181,0.345-1.629c0.229-0.446,0.519-0.807,0.867-1.082c0.349-0.274,0.727-0.474,1.135-0.599
		C13.528,70.486,13.908,70.423,14.259,70.423z"/>
	<path d="M10.83,57.54c0.345,0,0.717,0.061,1.116,0.183c0.398,0.121,0.77,0.317,1.111,0.589s0.627,0.626,0.857,1.063
		c0.229,0.437,0.344,0.969,0.344,1.595v4.492h-2.365v-4.492c0-0.339-0.104-0.601-0.312-0.786c-0.208-0.185-0.465-0.277-0.771-0.277
		c-0.326,0-0.582,0.104-0.768,0.312c-0.185,0.207-0.277,0.458-0.277,0.752v4.492c0,0.339,0.104,0.601,0.312,0.785
		c0.208,0.186,0.464,0.278,0.771,0.278h3.478c0.333,0,0.591-0.104,0.776-0.312c0.186-0.207,0.277-0.465,0.277-0.771v-4.473h2.375
		v4.492c0,0.345-0.06,0.717-0.182,1.116c-0.121,0.398-0.317,0.77-0.589,1.11c-0.271,0.343-0.626,0.628-1.063,0.858
		c-0.438,0.229-0.969,0.345-1.595,0.345H10.83c-0.345,0-0.717-0.062-1.116-0.183c-0.398-0.121-0.77-0.317-1.111-0.589
		s-0.627-0.626-0.857-1.063C7.516,66.619,7.4,66.087,7.4,65.461v-4.492c0-0.346,0.062-0.717,0.183-1.116
		c0.121-0.398,0.317-0.77,0.589-1.111c0.271-0.341,0.626-0.627,1.063-0.857C9.673,57.655,10.204,57.54,10.83,57.54z"/>
	<path d="M9.892,46.801v5.604c0,0.339,0.084,0.595,0.254,0.767c0.169,0.173,0.416,0.259,0.742,0.259h6.867v2.491h-6.867
		c-0.428,0-0.811-0.055-1.149-0.163s-0.638-0.254-0.896-0.437c-0.26-0.182-0.479-0.391-0.662-0.627
		c-0.182-0.236-0.33-0.483-0.444-0.742c-0.115-0.259-0.2-0.521-0.255-0.785C7.429,52.902,7.4,52.655,7.4,52.424v-5.623H9.892z"/>
</g>
</svg>
