<?xml version="1.0" encoding="utf-8"?>
<!-- Generator: Adobe Illustrator 16.0.0, SVG Export Plug-In . SVG Version: 6.00 Build 0)  -->
<!DOCTYPE svg PUBLIC "-//W3C//DTD SVG 1.1//EN" "http://www.w3.org/Graphics/SVG/1.1/DTD/svg11.dtd">
<svg version="1.1" id="Layer_1" xmlns="http://www.w3.org/2000/svg" xmlns:xlink="http://www.w3.org/1999/xlink" x="0px" y="0px"
	 width="379.053px" height="161.001px" viewBox="0 0 379.053 161.001" enable-background="new 0 0 379.053 161.001"
	 xml:space="preserve">
<g>
	<path d="M126.712,77.358H80.921v51.592H69.495V71.689c0-0.791,0.146-1.538,0.439-2.241c0.292-0.703,0.696-1.318,1.208-1.846
		c0.512-0.527,1.121-0.938,1.824-1.23c0.703-0.292,1.465-0.439,2.285-0.439h51.46V77.358z M121.614,103.198H85.491V91.684h36.123
		V103.198z"/>
</g>
<g>
	<path d="M236.437,29.922h-11.426V19.595h11.426V29.922z M236.437,87.183h-11.426V39.678h11.426V87.183z"/>
</g>
<g>
	<path d="M362.615,93.73h-16.787v34.395h-7.617V93.73h-16.816v-7.617h41.221V93.73z"/>
</g>
<path fill="#9C9E9F" d="M282.394,141.079c0.228,1.578,1.588,3.084,0.439,4.219s-2.786,1.771-4.611,1.771h-96.309
	c-1.825,0-3.463-0.653-4.61-1.789c-1.149-1.133,0.21-2.643,0.44-4.221c0,0,43.088,1.929,43.088-13.657
	c0-1.452,0.023-3.856,0.064-5.332h18.408c0.084,1.815,0.133,4.462,0.133,5.996C239.437,139.883,282.394,141.079,282.394,141.079z
	 M316.542,5.298v108.541c0,2.918-2.377,5.295-5.295,5.295H148.89c-2.919,0-5.296-2.377-5.296-5.295V5.298
	c0-2.921,2.377-5.297,5.296-5.297h162.356C314.165,0.001,316.542,2.377,316.542,5.298z M274.099,110.029
	c0-1.52-1.234-2.751-2.753-2.751s-2.75,1.231-2.75,2.751c0,1.519,1.231,2.751,2.75,2.751S274.099,111.548,274.099,110.029z
	 M286.792,110.029c0-1.52-1.232-2.751-2.75-2.751c-1.52,0-2.751,1.231-2.751,2.751c0,1.519,1.231,2.751,2.751,2.751
	C285.56,112.78,286.792,111.548,286.792,110.029z M299.49,110.029c0-1.52-1.235-2.751-2.753-2.751c-1.519,0-2.75,1.231-2.75,2.751
	c0,1.519,1.231,2.751,2.75,2.751C298.254,112.78,299.49,111.548,299.49,110.029z M302.926,12.616c0-0.082-0.119-0.207-0.279-0.207
	H157.489c-0.161,0-0.279,0.125-0.279,0.207v88.254h145.717V12.616z"/>
<path fill="#3E3D40" d="M368.895,48.804h-51.516c-5.588,0-10.158,4.571-10.158,10.159v91.928c0,5.587,4.57,10.158,10.158,10.158
	h51.516c5.586,0,10.158-4.571,10.158-10.158V58.963C379.053,53.375,374.481,48.804,368.895,48.804z M335.922,56.092h14.248
	c0.799,0,1.451,0.581,1.451,1.291c0,0.711-0.652,1.292-1.451,1.292h-14.248c-0.799,0-1.451-0.581-1.451-1.292
	C334.471,56.673,335.124,56.092,335.922,56.092z M343.046,155.868c-1.896,0-3.43-1.535-3.43-3.43s1.534-3.43,3.43-3.43
	c1.895,0,3.429,1.535,3.429,3.43S344.941,155.868,343.046,155.868z M369.459,144.691h-52.827v-79.53h52.827V144.691z"/>
<path fill="#707173" d="M188.21,140.892h-14.717V46.129c0-2.876-2.34-5.215-5.213-5.215H26.804c-2.873,0-5.213,2.339-5.213,5.215
	v94.763H6.875c-3.789,0-6.875,3.084-6.875,6.878v6.358c0,3.79,3.086,6.874,6.875,6.874H188.21c3.789,0,6.875-3.084,6.875-6.874
	v-6.358C195.085,143.976,192,140.892,188.21,140.892z M157.609,153.742c-1.209,0-2.189-0.981-2.189-2.19s0.98-2.191,2.189-2.191
	s2.191,0.982,2.191,2.191S158.818,153.742,157.609,153.742z M160.089,137.04H34.996V53.345c0-0.084,0.117-0.215,0.275-0.215h124.543
	c0.158,0,0.275,0.131,0.275,0.215V137.04z M167.716,153.742c-1.209,0-2.189-0.981-2.189-2.19s0.98-2.191,2.189-2.191
	s2.191,0.982,2.191,2.191S168.925,153.742,167.716,153.742z M177.824,153.742c-1.207,0-2.189-0.981-2.189-2.19
	s0.982-2.191,2.189-2.191c1.211,0,2.191,0.982,2.191,2.191S179.035,153.742,177.824,153.742z"/>
<g>
	<path d="M12.852,122.625c0.307,0,0.636,0.053,0.986,0.158c0.352,0.105,0.677,0.277,0.978,0.517c0.301,0.24,0.551,0.552,0.752,0.935
		s0.301,0.853,0.301,1.408v9.454c0,0.179-0.031,0.345-0.096,0.498c-0.063,0.153-0.15,0.286-0.263,0.397
		c-0.112,0.112-0.245,0.2-0.397,0.264c-0.154,0.063-0.319,0.096-0.498,0.096H3.388c-0.172,0-0.336-0.032-0.488-0.096
		c-0.154-0.063-0.287-0.151-0.402-0.264c-0.115-0.111-0.205-0.244-0.269-0.397s-0.096-0.319-0.096-0.498v-8.334
		c0-0.307,0.054-0.635,0.163-0.986c0.108-0.352,0.282-0.679,0.521-0.982c0.24-0.303,0.551-0.555,0.934-0.756
		c0.384-0.201,0.854-0.302,1.408-0.302h0.47c0.44,0,0.915,0.073,1.423,0.22c0.508,0.147,0.988,0.384,1.441,0.709
		c0.172-0.281,0.38-0.544,0.623-0.79c0.242-0.246,0.523-0.461,0.842-0.646c0.32-0.186,0.681-0.332,1.083-0.44
		s0.847-0.163,1.331-0.163H12.852z M12.373,125.115c-0.325,0-0.617,0.052-0.876,0.153c-0.259,0.103-0.48,0.246-0.666,0.432
		c-0.185,0.185-0.327,0.408-0.426,0.67s-0.149,0.556-0.149,0.881v5.613H7.747v-4.492c0-0.325-0.05-0.619-0.149-0.881
		c-0.098-0.262-0.24-0.485-0.426-0.671c-0.186-0.185-0.406-0.327-0.666-0.426c-0.258-0.1-0.551-0.148-0.876-0.148H5.16
		c-0.357,0-0.535,0.172-0.535,0.517v7.098h8.754v-8.218c0-0.045-0.003-0.1-0.01-0.163c-0.006-0.063-0.025-0.121-0.057-0.172
		c-0.032-0.052-0.087-0.097-0.163-0.135s-0.182-0.058-0.316-0.058H12.373z"/>
	<path d="M8.005,111.677v5.604c0,0.339,0.084,0.594,0.254,0.767c0.169,0.172,0.416,0.258,0.742,0.258h6.867v2.49H9.001
		c-0.428,0-0.811-0.054-1.149-0.162s-0.638-0.254-0.896-0.437c-0.26-0.182-0.479-0.391-0.662-0.627
		c-0.182-0.236-0.33-0.484-0.444-0.742c-0.115-0.259-0.2-0.521-0.255-0.786c-0.053-0.265-0.081-0.512-0.081-0.742v-5.622H8.005z"/>
	<path d="M12.373,98.812c0.428,0,0.813,0.055,1.154,0.163s0.643,0.253,0.9,0.432c0.26,0.179,0.479,0.386,0.661,0.622
		c0.183,0.236,0.331,0.483,0.446,0.742c0.114,0.259,0.199,0.521,0.253,0.786c0.055,0.265,0.081,0.516,0.081,0.751v4.493
		c0,0.345-0.06,0.722-0.182,1.13c-0.121,0.409-0.32,0.787-0.599,1.136c-0.277,0.348-0.638,0.639-1.082,0.871
		c-0.444,0.233-0.988,0.35-1.634,0.35H9.001c-0.639,0-1.18-0.116-1.623-0.35c-0.444-0.232-0.805-0.523-1.084-0.871
		c-0.277-0.349-0.477-0.727-0.598-1.136c-0.121-0.408-0.183-0.785-0.183-1.13v-4.493c0-0.638,0.115-1.181,0.345-1.628
		c0.23-0.447,0.52-0.808,0.867-1.082s0.727-0.475,1.135-0.6c0.409-0.124,0.789-0.187,1.141-0.187H12.373z M9.021,101.302
		c-0.346,0-0.602,0.087-0.768,0.259c-0.165,0.173-0.248,0.422-0.248,0.747v4.474c0,0.332,0.084,0.585,0.254,0.757
		c0.169,0.173,0.416,0.259,0.742,0.259h3.371c0.326,0,0.575-0.086,0.748-0.259c0.172-0.172,0.258-0.425,0.258-0.757v-4.474
		c0-0.338-0.086-0.59-0.258-0.756c-0.173-0.166-0.422-0.25-0.748-0.25H9.021z"/>
	<path d="M5.514,79.645c0.888,0.396,1.761,0.824,2.62,1.284c0.859,0.459,1.672,0.939,2.438,1.441
		c0.767,0.501,1.475,1.014,2.122,1.537c0.648,0.523,1.207,1.042,1.677,1.557c0.469,0.514,0.836,1.015,1.102,1.504
		c0.265,0.488,0.396,0.95,0.396,1.384c0,0.179-0.031,0.345-0.096,0.498c-0.063,0.153-0.15,0.287-0.263,0.402
		s-0.245,0.204-0.397,0.269c-0.154,0.063-0.319,0.096-0.498,0.096H9.968l5.527,4.942c0.129,0.128,0.223,0.268,0.283,0.417
		c0.061,0.15,0.09,0.305,0.09,0.464c0,0.173-0.031,0.335-0.096,0.484c-0.063,0.15-0.15,0.282-0.263,0.397s-0.245,0.206-0.397,0.273
		c-0.154,0.066-0.319,0.1-0.498,0.1H5.514v-2.49h5.901l-5.547-4.962c-0.179-0.179-0.292-0.391-0.34-0.637
		c-0.048-0.245-0.021-0.486,0.082-0.723c0.096-0.236,0.247-0.424,0.455-0.561c0.207-0.138,0.436-0.206,0.685-0.206h5.919
		c-0.517-0.536-1.063-1.021-1.637-1.456c-0.576-0.435-1.168-0.838-1.777-1.212c-0.61-0.373-1.229-0.725-1.859-1.054
		c-0.628-0.329-1.256-0.649-1.882-0.963V79.645z"/>
	<path d="M12.373,68.772c0.428,0,0.813,0.055,1.154,0.163s0.643,0.252,0.9,0.431c0.26,0.179,0.479,0.387,0.661,0.623
		c0.183,0.236,0.331,0.483,0.446,0.742c0.114,0.259,0.199,0.521,0.253,0.785c0.055,0.266,0.081,0.516,0.081,0.752v6.744h-2.49
		v-6.725c0-0.339-0.086-0.594-0.258-0.767c-0.173-0.173-0.422-0.259-0.748-0.259c-0.664,0.032-0.996,0.367-0.996,1.006v3.86
		c0,0.55-0.096,1.016-0.287,1.398s-0.432,0.694-0.719,0.935c-0.287,0.239-0.597,0.411-0.929,0.517S8.8,79.137,8.513,79.137
		c-0.557,0-1.023-0.099-1.404-0.297c-0.379-0.197-0.688-0.446-0.924-0.747c-0.236-0.3-0.407-0.626-0.513-0.978
		c-0.104-0.351-0.158-0.68-0.158-0.986v-6.121h2.491v6.102c0,0.128,0.014,0.229,0.043,0.303c0.028,0.073,0.066,0.128,0.115,0.162
		c0.047,0.035,0.099,0.056,0.152,0.063c0.055,0.007,0.107,0.01,0.158,0.01c0.103-0.007,0.182-0.025,0.24-0.058
		c0.057-0.031,0.099-0.071,0.124-0.12c0.025-0.048,0.04-0.102,0.043-0.162c0.004-0.062,0.005-0.12,0.005-0.178v-3.86
		c0-0.639,0.115-1.181,0.345-1.629c0.229-0.446,0.519-0.807,0.867-1.082c0.349-0.274,0.727-0.474,1.135-0.599
		C11.642,68.835,12.022,68.772,12.373,68.772z"/>
	<path d="M8.944,55.889c0.345,0,0.717,0.061,1.116,0.183c0.398,0.121,0.77,0.317,1.111,0.589s0.627,0.626,0.857,1.063
		c0.229,0.437,0.344,0.969,0.344,1.595v4.492h-2.365v-4.492c0-0.339-0.104-0.601-0.312-0.786c-0.208-0.185-0.465-0.277-0.771-0.277
		c-0.326,0-0.582,0.104-0.768,0.312c-0.185,0.207-0.277,0.458-0.277,0.752v4.492c0,0.339,0.104,0.601,0.312,0.785
		c0.208,0.186,0.464,0.278,0.771,0.278h3.478c0.333,0,0.591-0.104,0.776-0.312c0.186-0.207,0.277-0.465,0.277-0.771v-4.473h2.375
		v4.492c0,0.345-0.06,0.717-0.182,1.116c-0.121,0.398-0.317,0.77-0.589,1.11c-0.271,0.343-0.626,0.628-1.063,0.858
		c-0.438,0.229-0.969,0.345-1.595,0.345H8.944c-0.345,0-0.717-0.062-1.116-0.183c-0.398-0.121-0.77-0.317-1.111-0.589
		s-0.627-0.626-0.857-1.063c-0.229-0.438-0.345-0.969-0.345-1.595v-4.492c0-0.346,0.062-0.717,0.183-1.116
		c0.121-0.398,0.317-0.77,0.589-1.111c0.271-0.341,0.626-0.627,1.063-0.857C7.787,56.004,8.318,55.889,8.944,55.889z"/>
	<path d="M8.005,45.15v5.604c0,0.339,0.084,0.595,0.254,0.767c0.169,0.173,0.416,0.259,0.742,0.259h6.867v2.491H9.001
		c-0.428,0-0.811-0.055-1.149-0.163s-0.638-0.254-0.896-0.437c-0.26-0.182-0.479-0.391-0.662-0.627
		c-0.182-0.236-0.33-0.483-0.444-0.742c-0.115-0.259-0.2-0.521-0.255-0.785c-0.053-0.266-0.081-0.513-0.081-0.743V45.15H8.005z"/>
</g>
</svg>
